<svg width="200" height="60" viewBox="0 0 200 60" fill="none" xmlns="http://www.w3.org/2000/svg">
  <!-- Lightbulb Icon -->
  <g transform="translate(12, 8)">
    <!-- Lightbulb body with white gradient -->
    <defs>
      <linearGradient id="bulbGradientWhite" x1="0%" y1="0%" x2="0%" y2="100%">
        <stop offset="0%" style="stop-color:#ffffff;stop-opacity:1" />
        <stop offset="100%" style="stop-color:#f0f0f0;stop-opacity:1" />
      </linearGradient>
    </defs>
    
    <!-- Light rays -->
    <g stroke="#ffffff" stroke-width="1.5" fill="none" opacity="0.9">
      <path d="M18 2 L18 0" stroke-linecap="round"/>
      <path d="M20 3 L22 1" stroke-linecap="round"/>
      <path d="M22 4 L24 2" stroke-linecap="round"/>
      <path d="M20 5 L22 7" stroke-linecap="round"/>
      <path d="M18 6 L18 8" stroke-linecap="round"/>
    </g>
    
    <!-- Lightbulb glass -->
    <path d="M8 8 Q8 4 12 4 Q16 4 16 8 Q16 12 12 12 Q8 12 8 8 Z" fill="url(#bulbGradientWhite)" opacity="0.95"/>
    
    <!-- Data visualization inside bulb -->
    <!-- Bar chart -->
    <rect x="9.5" y="9" width="1" height="2" fill="#e0e0e0" opacity="0.9"/>
    <rect x="11" y="8.5" width="1" height="2.5" fill="#e0e0e0" opacity="0.9"/>
    <rect x="12.5" y="8" width="1" height="3" fill="#e0e0e0" opacity="0.9"/>
    
    <!-- Line graph -->
    <path d="M9 7.5 L10.5 7 L12 6.5 L13.5 7" stroke="#333333" stroke-width="0.8" fill="none" stroke-linecap="round"/>
    <circle cx="9" cy="7.5" r="0.3" fill="#333333"/>
    <circle cx="10.5" cy="7" r="0.3" fill="#333333"/>
    <circle cx="12" cy="6.5" r="0.3" fill="#333333"/>
    <circle cx="13.5" cy="7" r="0.3" fill="#333333"/>
    
    <!-- Lightbulb base -->
    <rect x="10" y="12" width="4" height="1" fill="#f0f0f0" opacity="0.9"/>
    <rect x="10.5" y="13" width="3" height="0.8" fill="#f0f0f0" opacity="0.9"/>
    <rect x="11" y="13.8" width="2" height="0.6" fill="#f0f0f0" opacity="0.9"/>
  </g>
  
  <!-- Text -->
  <text x="56" y="38" font-family="Inter, sans-serif" font-size="24" font-weight="700" fill="#ffffff">
    insighter
  </text>
</svg>