<svg width="32" height="32" viewBox="0 0 32 32" fill="none" xmlns="http://www.w3.org/2000/svg">
  <!-- Lightbulb Icon for Favicon -->
  <defs>
    <linearGradient id="bulbGradient" x1="0%" y1="0%" x2="0%" y2="100%">
      <stop offset="0%" style="stop-color:#20B2AA;stop-opacity:1" />
      <stop offset="100%" style="stop-color:#008B8B;stop-opacity:1" />
    </linearGradient>
  </defs>
  
  <!-- Light rays -->
  <g stroke="#20B2AA" stroke-width="1" fill="none" opacity="0.8">
    <path d="M16 2 L16 0" stroke-linecap="round"/>
    <path d="M18 3 L20 1" stroke-linecap="round"/>
    <path d="M20 4 L22 2" stroke-linecap="round"/>
    <path d="M18 5 L20 7" stroke-linecap="round"/>
    <path d="M16 6 L16 8" stroke-linecap="round"/>
  </g>
  
  <!-- Lightbulb glass -->
  <path d="M6 8 Q6 4 10 4 Q14 4 14 8 Q14 12 10 12 Q6 12 6 8 Z" fill="url(#bulbGradient)" opacity="0.9"/>
  
  <!-- Data visualization inside bulb -->
  <!-- Bar chart -->
  <rect x="7.5" y="9" width="0.8" height="1.5" fill="#008B8B" opacity="0.8"/>
  <rect x="8.8" y="8.5" width="0.8" height="2" fill="#008B8B" opacity="0.8"/>
  <rect x="10.1" y="8" width="0.8" height="2.5" fill="#008B8B" opacity="0.8"/>
  
  <!-- Line graph -->
  <path d="M7 7.5 L8.5 7 L10 6.5 L11.5 7" stroke="#000000" stroke-width="0.6" fill="none" stroke-linecap="round"/>
  <circle cx="7" cy="7.5" r="0.2" fill="#000000"/>
  <circle cx="8.5" cy="7" r="0.2" fill="#000000"/>
  <circle cx="10" cy="6.5" r="0.2" fill="#000000"/>
  <circle cx="11.5" cy="7" r="0.2" fill="#000000"/>
  
  <!-- Lightbulb base -->
  <rect x="8" y="12" width="4" height="0.8" fill="#008B8B" opacity="0.9"/>
  <rect x="8.5" y="12.8" width="3" height="0.6" fill="#008B8B" opacity="0.9"/>
  <rect x="9" y="13.4" width="2" height="0.5" fill="#008B8B" opacity="0.9"/>
</svg>
